<svg xmlns="http://www.w3.org/2000/svg" xmlns:xlink="http://www.w3.org/1999/xlink" width="578" zoomAndPan="magnify" viewBox="0 0 433.5 113.249998" height="151" preserveAspectRatio="xMidYMid meet" version="1.0"><defs><g/><clipPath id="bcbc51eba9"><path d="M 18.574219 2.019531 L 76.023438 2.019531 L 76.023438 13.71875 L 18.574219 13.71875 Z M 18.574219 2.019531 " clip-rule="nonzero"/></clipPath></defs><g fill="#4f15ac" fill-opacity="1"><g transform="translate(82.394103, 92.53982)"><g><path d="M 33.78125 -47.703125 C 33.78125 -48.796875 34.328125 -49.34375 35.421875 -49.34375 L 45.6875 -49.34375 C 46.78125 -49.34375 47.328125 -48.796875 47.328125 -47.703125 L 47.328125 -1.625 C 47.328125 -0.539062 46.78125 0 45.6875 0 L 35.421875 0 C 34.328125 0 33.78125 -0.539062 33.78125 -1.625 L 33.78125 -4.21875 C 33.78125 -4.476562 33.703125 -4.625 33.546875 -4.65625 C 33.390625 -4.6875 33.242188 -4.609375 33.109375 -4.421875 C 30.617188 -1.023438 26.6875 0.671875 21.3125 0.671875 C 16.445312 0.671875 12.445312 -0.796875 9.3125 -3.734375 C 6.175781 -6.679688 4.609375 -10.8125 4.609375 -16.125 L 4.609375 -47.703125 C 4.609375 -48.796875 5.148438 -49.34375 6.234375 -49.34375 L 16.40625 -49.34375 C 17.5 -49.34375 18.046875 -48.796875 18.046875 -47.703125 L 18.046875 -19.484375 C 18.046875 -16.921875 18.734375 -14.835938 20.109375 -13.234375 C 21.484375 -11.640625 23.382812 -10.84375 25.8125 -10.84375 C 27.988281 -10.84375 29.78125 -11.5 31.1875 -12.8125 C 32.601562 -14.125 33.46875 -15.835938 33.78125 -17.953125 Z M 33.78125 -47.703125 "/></g></g></g><g fill="#4f15ac" fill-opacity="1"><g transform="translate(134.706396, 92.53982)"><g><path d="M 28.796875 -10.65625 C 33.015625 -10.84375 36.242188 -12.3125 38.484375 -15.0625 C 38.867188 -15.507812 39.285156 -15.734375 39.734375 -15.734375 C 40.117188 -15.734375 40.472656 -15.578125 40.796875 -15.265625 L 46.265625 -9.984375 C 46.648438 -9.597656 46.84375 -9.210938 46.84375 -8.828125 C 46.84375 -8.378906 46.710938 -7.992188 46.453125 -7.671875 C 44.335938 -5.054688 41.632812 -2.992188 38.34375 -1.484375 C 35.050781 0.015625 31.453125 0.765625 27.546875 0.765625 C 21.660156 0.765625 16.78125 -0.734375 12.90625 -3.734375 C 9.039062 -6.742188 6.4375 -10.875 5.09375 -16.125 C 4.320312 -18.9375 3.9375 -21.910156 3.9375 -25.046875 C 3.9375 -28.765625 4.285156 -31.898438 4.984375 -34.453125 C 6.265625 -39.191406 8.84375 -43 12.71875 -45.875 C 16.59375 -48.757812 21.179688 -50.203125 26.484375 -50.203125 C 32.753906 -50.203125 37.726562 -48.34375 41.40625 -44.625 C 45.09375 -40.914062 47.476562 -35.703125 48.5625 -28.984375 C 48.820312 -26.867188 49.015625 -24.535156 49.140625 -21.984375 C 49.140625 -20.890625 48.597656 -20.34375 47.515625 -20.34375 L 18.046875 -20.34375 C 17.660156 -20.34375 17.46875 -20.148438 17.46875 -19.765625 C 17.65625 -18.421875 17.878906 -17.429688 18.140625 -16.796875 C 18.773438 -14.816406 20.035156 -13.296875 21.921875 -12.234375 C 23.816406 -11.179688 26.109375 -10.65625 28.796875 -10.65625 Z M 26.296875 -38.484375 C 24.253906 -38.484375 22.539062 -37.988281 21.15625 -37 C 19.78125 -36.007812 18.835938 -34.617188 18.328125 -32.828125 C 18.015625 -31.609375 17.820312 -30.804688 17.75 -30.421875 C 17.6875 -30.035156 17.847656 -29.84375 18.234375 -29.84375 L 34.546875 -29.84375 C 34.867188 -29.84375 35.03125 -29.972656 35.03125 -30.234375 C 35.03125 -30.941406 34.90625 -31.675781 34.65625 -32.4375 C 34.070312 -34.289062 33.078125 -35.757812 31.671875 -36.84375 C 30.265625 -37.9375 28.472656 -38.484375 26.296875 -38.484375 Z M 26.296875 -38.484375 "/></g></g></g><g fill="#4f15ac" fill-opacity="1"><g transform="translate(187.210664, 92.53982)"><g><path d="M 34.75 -65.5625 C 34.75 -66.644531 35.289062 -67.1875 36.375 -67.1875 L 46.65625 -67.1875 C 47.738281 -67.1875 48.28125 -66.644531 48.28125 -65.5625 L 48.28125 -1.625 C 48.28125 -0.539062 47.738281 0 46.65625 0 L 36.375 0 C 35.289062 0 34.75 -0.539062 34.75 -1.625 L 34.75 -4.21875 C 34.75 -4.476562 34.664062 -4.625 34.5 -4.65625 C 34.34375 -4.6875 34.203125 -4.609375 34.078125 -4.421875 C 31.453125 -0.960938 27.800781 0.765625 23.125 0.765625 C 18.78125 0.765625 14.925781 -0.523438 11.5625 -3.109375 C 8.207031 -5.703125 5.890625 -9.113281 4.609375 -13.34375 C 3.515625 -16.414062 2.96875 -20.253906 2.96875 -24.859375 C 2.96875 -29.597656 3.578125 -33.566406 4.796875 -36.765625 C 6.203125 -40.859375 8.519531 -44.117188 11.75 -46.546875 C 14.988281 -48.984375 18.78125 -50.203125 23.125 -50.203125 C 27.863281 -50.203125 31.515625 -48.632812 34.078125 -45.5 C 34.203125 -45.300781 34.34375 -45.234375 34.5 -45.296875 C 34.664062 -45.367188 34.75 -45.53125 34.75 -45.78125 Z M 32.734375 -15.171875 C 34.015625 -17.535156 34.65625 -20.703125 34.65625 -24.671875 C 34.65625 -28.890625 33.984375 -32.179688 32.640625 -34.546875 C 31.035156 -37.046875 28.890625 -38.296875 26.203125 -38.296875 C 23.253906 -38.296875 21.015625 -37.082031 19.484375 -34.65625 C 17.953125 -32.09375 17.1875 -28.734375 17.1875 -24.578125 C 17.1875 -20.796875 17.859375 -17.660156 19.203125 -15.171875 C 20.734375 -12.410156 23.066406 -11.03125 26.203125 -11.03125 C 29.015625 -11.03125 31.191406 -12.410156 32.734375 -15.171875 Z M 32.734375 -15.171875 "/></g></g></g><g fill="#4f15ac" fill-opacity="1"><g transform="translate(240.674788, 92.53982)"><g><path d="M 28.796875 -10.65625 C 33.015625 -10.84375 36.242188 -12.3125 38.484375 -15.0625 C 38.867188 -15.507812 39.285156 -15.734375 39.734375 -15.734375 C 40.117188 -15.734375 40.472656 -15.578125 40.796875 -15.265625 L 46.265625 -9.984375 C 46.648438 -9.597656 46.84375 -9.210938 46.84375 -8.828125 C 46.84375 -8.378906 46.710938 -7.992188 46.453125 -7.671875 C 44.335938 -5.054688 41.632812 -2.992188 38.34375 -1.484375 C 35.050781 0.015625 31.453125 0.765625 27.546875 0.765625 C 21.660156 0.765625 16.78125 -0.734375 12.90625 -3.734375 C 9.039062 -6.742188 6.4375 -10.875 5.09375 -16.125 C 4.320312 -18.9375 3.9375 -21.910156 3.9375 -25.046875 C 3.9375 -28.765625 4.285156 -31.898438 4.984375 -34.453125 C 6.265625 -39.191406 8.84375 -43 12.71875 -45.875 C 16.59375 -48.757812 21.179688 -50.203125 26.484375 -50.203125 C 32.753906 -50.203125 37.726562 -48.34375 41.40625 -44.625 C 45.09375 -40.914062 47.476562 -35.703125 48.5625 -28.984375 C 48.820312 -26.867188 49.015625 -24.535156 49.140625 -21.984375 C 49.140625 -20.890625 48.597656 -20.34375 47.515625 -20.34375 L 18.046875 -20.34375 C 17.660156 -20.34375 17.46875 -20.148438 17.46875 -19.765625 C 17.65625 -18.421875 17.878906 -17.429688 18.140625 -16.796875 C 18.773438 -14.816406 20.035156 -13.296875 21.921875 -12.234375 C 23.816406 -11.179688 26.109375 -10.65625 28.796875 -10.65625 Z M 26.296875 -38.484375 C 24.253906 -38.484375 22.539062 -37.988281 21.15625 -37 C 19.78125 -36.007812 18.835938 -34.617188 18.328125 -32.828125 C 18.015625 -31.609375 17.820312 -30.804688 17.75 -30.421875 C 17.6875 -30.035156 17.847656 -29.84375 18.234375 -29.84375 L 34.546875 -29.84375 C 34.867188 -29.84375 35.03125 -29.972656 35.03125 -30.234375 C 35.03125 -30.941406 34.90625 -31.675781 34.65625 -32.4375 C 34.070312 -34.289062 33.078125 -35.757812 31.671875 -36.84375 C 30.265625 -37.9375 28.472656 -38.484375 26.296875 -38.484375 Z M 26.296875 -38.484375 "/></g></g></g><g fill="#4f15ac" fill-opacity="1"><g transform="translate(293.179057, 92.53982)"><g><path d="M 59.703125 -50.109375 C 64.691406 -50.109375 68.59375 -48.601562 71.40625 -45.59375 C 74.226562 -42.582031 75.640625 -38.359375 75.640625 -32.921875 L 75.640625 -1.625 C 75.640625 -0.539062 75.09375 0 74 0 L 63.734375 0 C 62.648438 0 62.109375 -0.539062 62.109375 -1.625 L 62.109375 -29.953125 C 62.109375 -32.566406 61.4375 -34.640625 60.09375 -36.171875 C 58.75 -37.710938 56.957031 -38.484375 54.71875 -38.484375 C 52.476562 -38.484375 50.648438 -37.710938 49.234375 -36.171875 C 47.828125 -34.640625 47.125 -32.597656 47.125 -30.046875 L 47.125 -1.625 C 47.125 -0.539062 46.582031 0 45.5 0 L 35.328125 0 C 34.234375 0 33.6875 -0.539062 33.6875 -1.625 L 33.6875 -29.953125 C 33.6875 -32.503906 32.984375 -34.5625 31.578125 -36.125 C 30.171875 -37.695312 28.347656 -38.484375 26.109375 -38.484375 C 24.054688 -38.484375 22.34375 -37.875 20.96875 -36.65625 C 19.59375 -35.445312 18.78125 -33.753906 18.53125 -31.578125 L 18.53125 -1.625 C 18.53125 -0.539062 17.984375 0 16.890625 0 L 6.625 0 C 5.53125 0 4.984375 -0.539062 4.984375 -1.625 L 4.984375 -47.703125 C 4.984375 -48.796875 5.53125 -49.34375 6.625 -49.34375 L 16.890625 -49.34375 C 17.984375 -49.34375 18.53125 -48.796875 18.53125 -47.703125 L 18.53125 -44.625 C 18.53125 -44.375 18.609375 -44.21875 18.765625 -44.15625 C 18.921875 -44.09375 19.066406 -44.1875 19.203125 -44.4375 C 21.816406 -48.21875 25.847656 -50.109375 31.296875 -50.109375 C 34.492188 -50.109375 37.273438 -49.453125 39.640625 -48.140625 C 42.003906 -46.828125 43.828125 -44.921875 45.109375 -42.421875 C 45.171875 -42.171875 45.28125 -42.0625 45.4375 -42.09375 C 45.601562 -42.125 45.75 -42.234375 45.875 -42.421875 C 47.351562 -44.984375 49.273438 -46.90625 51.640625 -48.1875 C 54.003906 -49.46875 56.691406 -50.109375 59.703125 -50.109375 Z M 59.703125 -50.109375 "/></g></g></g><g fill="#4f15ac" fill-opacity="1"><g transform="translate(373.327248, 92.53982)"><g><path d="M 4.703125 19.09375 C 4.253906 19.09375 4.03125 18.550781 4.03125 17.46875 L 4.03125 9.59375 C 4.03125 8.507812 4.222656 7.96875 4.609375 7.96875 L 5.1875 7.96875 C 9.15625 7.96875 11.984375 7.46875 13.671875 6.46875 C 15.367188 5.476562 16.601562 3.453125 17.375 0.390625 C 17.5 0.0664062 17.5 -0.191406 17.375 -0.390625 L 1.921875 -47.515625 C 1.859375 -47.640625 1.828125 -47.832031 1.828125 -48.09375 C 1.828125 -48.476562 1.953125 -48.78125 2.203125 -49 C 2.460938 -49.226562 2.816406 -49.34375 3.265625 -49.34375 L 14.296875 -49.34375 C 15.191406 -49.34375 15.800781 -48.894531 16.125 -48 L 24 -19.390625 C 24.0625 -19.128906 24.1875 -19 24.375 -19 C 24.570312 -19 24.703125 -19.128906 24.765625 -19.390625 L 32.25 -47.890625 C 32.4375 -48.859375 33.046875 -49.34375 34.078125 -49.34375 L 45.109375 -49.34375 C 45.679688 -49.34375 46.097656 -49.164062 46.359375 -48.8125 C 46.617188 -48.457031 46.648438 -48.023438 46.453125 -47.515625 L 30.046875 1.828125 C 28.441406 6.492188 26.804688 9.992188 25.140625 12.328125 C 23.484375 14.671875 21.148438 16.382812 18.140625 17.46875 C 15.128906 18.550781 10.875 19.09375 5.375 19.09375 Z M 4.703125 19.09375 "/></g></g></g><g fill="#4f15ac" fill-opacity="1"><g transform="translate(10.393605, 90.146284)"><g><path d="M 63.164062 5.585938 L 70.8125 -1.640625 L 61.332031 -10.652344 C 65.558594 -16.519531 67.855469 -24.589844 67.855469 -33.082031 C 67.855469 -51.148438 57.765625 -67.292969 35.851562 -67.292969 C 13.9375 -67.292969 3.847656 -51.242188 3.847656 -33.175781 C 3.847656 -15.109375 13.9375 0.9375 35.851562 0.9375 C 42.84375 0.9375 48.804688 -0.75 53.636719 -3.941406 Z M 35.851562 -10.277344 C 21.632812 -10.277344 15.765625 -20.648438 15.765625 -33.175781 C 15.765625 -45.660156 21.632812 -56.03125 35.851562 -56.03125 C 50.070312 -56.03125 55.9375 -45.660156 55.9375 -33.175781 C 55.9375 -27.96875 54.953125 -23.464844 52.652344 -19.332031 L 43.828125 -27.5 L 36.132812 -20.460938 L 45.191406 -12.199219 C 42.75 -11.074219 39.605469 -10.277344 35.851562 -10.277344 Z M 35.851562 -10.277344 "/></g></g></g><g clip-path="url(#bcbc51eba9)"><path fill="#4f15ac" d="M 18.574219 2.019531 L 76.023438 2.019531 L 76.023438 13.691406 L 18.574219 13.691406 Z M 18.574219 2.019531 " fill-opacity="1" fill-rule="nonzero"/></g></svg>