<svg xmlns="http://www.w3.org/2000/svg" xmlns:xlink="http://www.w3.org/1999/xlink" width="578" zoomAndPan="magnify" viewBox="0 0 433.5 113.249998" height="151" preserveAspectRatio="xMidYMid meet" version="1.0"><defs><g/><clipPath id="35b4d80a2f"><path d="M 375 43 L 421 43 L 421 112.503906 L 375 112.503906 Z M 375 43 " clip-rule="nonzero"/></clipPath><clipPath id="1dfa49aa9d"><path d="M 18.574219 2.019531 L 76.023438 2.019531 L 76.023438 13.71875 L 18.574219 13.71875 Z M 18.574219 2.019531 " clip-rule="nonzero"/></clipPath></defs><g fill="#ffffff" fill-opacity="1"><g transform="translate(82.385656, 93.320507)"><g><path d="M 33.796875 -47.71875 C 33.796875 -48.800781 34.335938 -49.34375 35.421875 -49.34375 L 45.703125 -49.34375 C 46.785156 -49.34375 47.328125 -48.800781 47.328125 -47.71875 L 47.328125 -1.625 C 47.328125 -0.539062 46.785156 0 45.703125 0 L 35.421875 0 C 34.335938 0 33.796875 -0.539062 33.796875 -1.625 L 33.796875 -4.21875 C 33.796875 -4.476562 33.710938 -4.625 33.546875 -4.65625 C 33.390625 -4.6875 33.25 -4.609375 33.125 -4.421875 C 30.625 -1.023438 26.6875 0.671875 21.3125 0.671875 C 16.445312 0.671875 12.445312 -0.796875 9.3125 -3.734375 C 6.175781 -6.679688 4.609375 -10.8125 4.609375 -16.125 L 4.609375 -47.71875 C 4.609375 -48.800781 5.148438 -49.34375 6.234375 -49.34375 L 16.421875 -49.34375 C 17.503906 -49.34375 18.046875 -48.800781 18.046875 -47.71875 L 18.046875 -19.484375 C 18.046875 -16.921875 18.734375 -14.835938 20.109375 -13.234375 C 21.484375 -11.640625 23.390625 -10.84375 25.828125 -10.84375 C 28.003906 -10.84375 29.796875 -11.5 31.203125 -12.8125 C 32.609375 -14.125 33.472656 -15.835938 33.796875 -17.953125 Z M 33.796875 -47.71875 "/></g></g></g><g fill="#ffffff" fill-opacity="1"><g transform="translate(134.700832, 93.320507)"><g><path d="M 28.796875 -10.65625 C 33.023438 -10.84375 36.257812 -12.316406 38.5 -15.078125 C 38.882812 -15.523438 39.300781 -15.75 39.75 -15.75 C 40.125 -15.75 40.472656 -15.585938 40.796875 -15.265625 L 46.265625 -9.984375 C 46.648438 -9.597656 46.84375 -9.210938 46.84375 -8.828125 C 46.84375 -8.378906 46.71875 -8 46.46875 -7.6875 C 44.351562 -5.0625 41.644531 -2.992188 38.34375 -1.484375 C 35.050781 0.015625 31.453125 0.765625 27.546875 0.765625 C 21.660156 0.765625 16.78125 -0.734375 12.90625 -3.734375 C 9.039062 -6.742188 6.4375 -10.875 5.09375 -16.125 C 4.320312 -18.945312 3.9375 -21.925781 3.9375 -25.0625 C 3.9375 -28.769531 4.285156 -31.90625 4.984375 -34.46875 C 6.265625 -39.195312 8.84375 -43 12.71875 -45.875 C 16.59375 -48.757812 21.1875 -50.203125 26.5 -50.203125 C 32.769531 -50.203125 37.742188 -48.347656 41.421875 -44.640625 C 45.097656 -40.929688 47.484375 -35.710938 48.578125 -28.984375 C 48.828125 -26.878906 49.019531 -24.546875 49.15625 -21.984375 C 49.15625 -20.898438 48.609375 -20.359375 47.515625 -20.359375 L 18.046875 -20.359375 C 17.660156 -20.359375 17.46875 -20.164062 17.46875 -19.78125 C 17.664062 -18.4375 17.890625 -17.441406 18.140625 -16.796875 C 18.785156 -14.816406 20.050781 -13.296875 21.9375 -12.234375 C 23.820312 -11.179688 26.109375 -10.65625 28.796875 -10.65625 Z M 26.296875 -38.5 C 24.253906 -38.5 22.546875 -38 21.171875 -37 C 19.796875 -36.007812 18.851562 -34.617188 18.34375 -32.828125 C 18.019531 -31.617188 17.828125 -30.820312 17.765625 -30.4375 C 17.691406 -30.050781 17.847656 -29.859375 18.234375 -29.859375 L 34.5625 -29.859375 C 34.882812 -29.859375 35.046875 -29.984375 35.046875 -30.234375 C 35.046875 -30.941406 34.914062 -31.679688 34.65625 -32.453125 C 34.082031 -34.304688 33.085938 -35.773438 31.671875 -36.859375 C 30.265625 -37.953125 28.472656 -38.5 26.296875 -38.5 Z M 26.296875 -38.5 "/></g></g></g><g fill="#ffffff" fill-opacity="1"><g transform="translate(187.207988, 93.320507)"><g><path d="M 34.75 -65.5625 C 34.75 -66.65625 35.296875 -67.203125 36.390625 -67.203125 L 46.65625 -67.203125 C 47.738281 -67.203125 48.28125 -66.65625 48.28125 -65.5625 L 48.28125 -1.625 C 48.28125 -0.539062 47.738281 0 46.65625 0 L 36.390625 0 C 35.296875 0 34.75 -0.539062 34.75 -1.625 L 34.75 -4.21875 C 34.75 -4.476562 34.664062 -4.625 34.5 -4.65625 C 34.34375 -4.6875 34.203125 -4.609375 34.078125 -4.421875 C 31.453125 -0.960938 27.804688 0.765625 23.140625 0.765625 C 18.785156 0.765625 14.925781 -0.53125 11.5625 -3.125 C 8.207031 -5.71875 5.890625 -9.125 4.609375 -13.34375 C 3.515625 -16.414062 2.96875 -20.253906 2.96875 -24.859375 C 2.96875 -29.597656 3.578125 -33.566406 4.796875 -36.765625 C 6.203125 -40.859375 8.519531 -44.117188 11.75 -46.546875 C 14.988281 -48.984375 18.785156 -50.203125 23.140625 -50.203125 C 27.867188 -50.203125 31.515625 -48.632812 34.078125 -45.5 C 34.203125 -45.3125 34.34375 -45.25 34.5 -45.3125 C 34.664062 -45.375 34.75 -45.535156 34.75 -45.796875 Z M 32.734375 -15.171875 C 34.015625 -17.535156 34.65625 -20.703125 34.65625 -24.671875 C 34.65625 -28.898438 33.984375 -32.195312 32.640625 -34.5625 C 31.035156 -37.050781 28.890625 -38.296875 26.203125 -38.296875 C 23.265625 -38.296875 21.023438 -37.082031 19.484375 -34.65625 C 17.953125 -32.09375 17.1875 -28.734375 17.1875 -24.578125 C 17.1875 -20.796875 17.859375 -17.660156 19.203125 -15.171875 C 20.734375 -12.421875 23.066406 -11.046875 26.203125 -11.046875 C 29.023438 -11.046875 31.203125 -12.421875 32.734375 -15.171875 Z M 32.734375 -15.171875 "/></g></g></g><g fill="#ffffff" fill-opacity="1"><g transform="translate(240.67506, 93.320507)"><g><path d="M 28.796875 -10.65625 C 33.023438 -10.84375 36.257812 -12.316406 38.5 -15.078125 C 38.882812 -15.523438 39.300781 -15.75 39.75 -15.75 C 40.125 -15.75 40.472656 -15.585938 40.796875 -15.265625 L 46.265625 -9.984375 C 46.648438 -9.597656 46.84375 -9.210938 46.84375 -8.828125 C 46.84375 -8.378906 46.71875 -8 46.46875 -7.6875 C 44.351562 -5.0625 41.644531 -2.992188 38.34375 -1.484375 C 35.050781 0.015625 31.453125 0.765625 27.546875 0.765625 C 21.660156 0.765625 16.78125 -0.734375 12.90625 -3.734375 C 9.039062 -6.742188 6.4375 -10.875 5.09375 -16.125 C 4.320312 -18.945312 3.9375 -21.925781 3.9375 -25.0625 C 3.9375 -28.769531 4.285156 -31.90625 4.984375 -34.46875 C 6.265625 -39.195312 8.84375 -43 12.71875 -45.875 C 16.59375 -48.757812 21.1875 -50.203125 26.5 -50.203125 C 32.769531 -50.203125 37.742188 -48.347656 41.421875 -44.640625 C 45.097656 -40.929688 47.484375 -35.710938 48.578125 -28.984375 C 48.828125 -26.878906 49.019531 -24.546875 49.15625 -21.984375 C 49.15625 -20.898438 48.609375 -20.359375 47.515625 -20.359375 L 18.046875 -20.359375 C 17.660156 -20.359375 17.46875 -20.164062 17.46875 -19.78125 C 17.664062 -18.4375 17.890625 -17.441406 18.140625 -16.796875 C 18.785156 -14.816406 20.050781 -13.296875 21.9375 -12.234375 C 23.820312 -11.179688 26.109375 -10.65625 28.796875 -10.65625 Z M 26.296875 -38.5 C 24.253906 -38.5 22.546875 -38 21.171875 -37 C 19.796875 -36.007812 18.851562 -34.617188 18.34375 -32.828125 C 18.019531 -31.617188 17.828125 -30.820312 17.765625 -30.4375 C 17.691406 -30.050781 17.847656 -29.859375 18.234375 -29.859375 L 34.5625 -29.859375 C 34.882812 -29.859375 35.046875 -29.984375 35.046875 -30.234375 C 35.046875 -30.941406 34.914062 -31.679688 34.65625 -32.453125 C 34.082031 -34.304688 33.085938 -35.773438 31.671875 -36.859375 C 30.265625 -37.953125 28.472656 -38.5 26.296875 -38.5 Z M 26.296875 -38.5 "/></g></g></g><g fill="#ffffff" fill-opacity="1"><g transform="translate(293.182215, 93.320507)"><g><path d="M 59.71875 -50.109375 C 64.707031 -50.109375 68.609375 -48.601562 71.421875 -45.59375 C 74.234375 -42.59375 75.640625 -38.367188 75.640625 -32.921875 L 75.640625 -1.625 C 75.640625 -0.539062 75.097656 0 74.015625 0 L 63.75 0 C 62.65625 0 62.109375 -0.539062 62.109375 -1.625 L 62.109375 -29.953125 C 62.109375 -32.578125 61.4375 -34.65625 60.09375 -36.1875 C 58.75 -37.726562 56.957031 -38.5 54.71875 -38.5 C 52.476562 -38.5 50.65625 -37.726562 49.25 -36.1875 C 47.84375 -34.65625 47.140625 -32.609375 47.140625 -30.046875 L 47.140625 -1.625 C 47.140625 -0.539062 46.59375 0 45.5 0 L 35.328125 0 C 34.242188 0 33.703125 -0.539062 33.703125 -1.625 L 33.703125 -29.953125 C 33.703125 -32.515625 32.992188 -34.578125 31.578125 -36.140625 C 30.171875 -37.710938 28.347656 -38.5 26.109375 -38.5 C 24.066406 -38.5 22.351562 -37.890625 20.96875 -36.671875 C 19.59375 -35.453125 18.78125 -33.753906 18.53125 -31.578125 L 18.53125 -1.625 C 18.53125 -0.539062 17.984375 0 16.890625 0 L 6.625 0 C 5.53125 0 4.984375 -0.539062 4.984375 -1.625 L 4.984375 -47.71875 C 4.984375 -48.800781 5.53125 -49.34375 6.625 -49.34375 L 16.890625 -49.34375 C 17.984375 -49.34375 18.53125 -48.800781 18.53125 -47.71875 L 18.53125 -44.640625 C 18.53125 -44.378906 18.609375 -44.21875 18.765625 -44.15625 C 18.929688 -44.09375 19.078125 -44.191406 19.203125 -44.453125 C 21.828125 -48.222656 25.859375 -50.109375 31.296875 -50.109375 C 34.492188 -50.109375 37.273438 -49.453125 39.640625 -48.140625 C 42.015625 -46.828125 43.84375 -44.925781 45.125 -42.4375 C 45.1875 -42.175781 45.296875 -42.0625 45.453125 -42.09375 C 45.617188 -42.125 45.765625 -42.238281 45.890625 -42.4375 C 47.359375 -44.988281 49.273438 -46.90625 51.640625 -48.1875 C 54.015625 -49.46875 56.707031 -50.109375 59.71875 -50.109375 Z M 59.71875 -50.109375 "/></g></g></g><g clip-path="url(#35b4d80a2f)"><g fill="#ffffff" fill-opacity="1"><g transform="translate(373.334808, 93.320507)"><g><path d="M 4.703125 19.109375 C 4.253906 19.109375 4.03125 18.5625 4.03125 17.46875 L 4.03125 9.59375 C 4.03125 8.507812 4.222656 7.96875 4.609375 7.96875 L 5.1875 7.96875 C 9.15625 7.96875 11.984375 7.46875 13.671875 6.46875 C 15.367188 5.476562 16.601562 3.453125 17.375 0.390625 C 17.5 0.0664062 17.5 -0.191406 17.375 -0.390625 L 1.921875 -47.515625 C 1.859375 -47.648438 1.828125 -47.84375 1.828125 -48.09375 C 1.828125 -48.476562 1.953125 -48.78125 2.203125 -49 C 2.460938 -49.226562 2.816406 -49.34375 3.265625 -49.34375 L 14.296875 -49.34375 C 15.191406 -49.34375 15.800781 -48.894531 16.125 -48 L 24 -19.390625 C 24.0625 -19.140625 24.1875 -19.015625 24.375 -19.015625 C 24.570312 -19.015625 24.703125 -19.140625 24.765625 -19.390625 L 32.25 -47.90625 C 32.445312 -48.863281 33.054688 -49.34375 34.078125 -49.34375 L 45.125 -49.34375 C 45.695312 -49.34375 46.109375 -49.164062 46.359375 -48.8125 C 46.617188 -48.457031 46.65625 -48.023438 46.46875 -47.515625 L 30.046875 1.828125 C 28.441406 6.492188 26.804688 9.992188 25.140625 12.328125 C 23.484375 14.671875 21.148438 16.382812 18.140625 17.46875 C 15.128906 18.5625 10.875 19.109375 5.375 19.109375 Z M 4.703125 19.109375 "/></g></g></g></g><g fill="#ffffff" fill-opacity="1"><g transform="translate(10.397293, 91.415776)"><g><path d="M 63.164062 5.585938 L 70.8125 -1.640625 L 61.332031 -10.652344 C 65.554688 -16.519531 67.855469 -24.589844 67.855469 -33.082031 C 67.855469 -51.148438 57.765625 -67.292969 35.851562 -67.292969 C 13.9375 -67.292969 3.847656 -51.242188 3.847656 -33.175781 C 3.847656 -15.109375 13.9375 0.9375 35.851562 0.9375 C 42.84375 0.9375 48.804688 -0.75 53.636719 -3.941406 Z M 35.851562 -10.277344 C 21.632812 -10.277344 15.765625 -20.648438 15.765625 -33.175781 C 15.765625 -45.660156 21.632812 -56.03125 35.851562 -56.03125 C 50.070312 -56.03125 55.9375 -45.660156 55.9375 -33.175781 C 55.9375 -27.96875 54.949219 -23.464844 52.652344 -19.332031 L 43.828125 -27.5 L 36.132812 -20.460938 L 45.191406 -12.199219 C 42.75 -11.074219 39.605469 -10.277344 35.851562 -10.277344 Z M 35.851562 -10.277344 "/></g></g></g><g clip-path="url(#1dfa49aa9d)"><path fill="#ffffff" d="M 18.574219 2.019531 L 76.023438 2.019531 L 76.023438 13.691406 L 18.574219 13.691406 Z M 18.574219 2.019531 " fill-opacity="1" fill-rule="nonzero"/></g></svg>