<svg xmlns="http://www.w3.org/2000/svg" xmlns:xlink="http://www.w3.org/1999/xlink" width="566" zoomAndPan="magnify" viewBox="0 0 425.03998 283.499996" height="377" preserveAspectRatio="xMidYMid meet" version="1.0"><defs><g/><clipPath id="5f88f8848c"><path d="M 26.488281 87.285156 L 81.046875 87.285156 L 81.046875 98.394531 L 26.488281 98.394531 Z M 26.488281 87.285156 " clip-rule="nonzero"/></clipPath></defs><g fill="#4f15ac" fill-opacity="1"><g transform="translate(87.095584, 173.247261)"><g><path d="M 32.09375 -45.296875 C 32.09375 -46.335938 32.609375 -46.859375 33.640625 -46.859375 L 43.390625 -46.859375 C 44.421875 -46.859375 44.9375 -46.335938 44.9375 -45.296875 L 44.9375 -1.546875 C 44.9375 -0.515625 44.421875 0 43.390625 0 L 33.640625 0 C 32.609375 0 32.09375 -0.515625 32.09375 -1.546875 L 32.09375 -4.015625 C 32.09375 -4.253906 32.015625 -4.390625 31.859375 -4.421875 C 31.703125 -4.453125 31.566406 -4.375 31.453125 -4.1875 C 29.078125 -0.96875 25.335938 0.640625 20.234375 0.640625 C 15.617188 0.640625 11.820312 -0.753906 8.84375 -3.546875 C 5.863281 -6.347656 4.375 -10.269531 4.375 -15.3125 L 4.375 -45.296875 C 4.375 -46.335938 4.890625 -46.859375 5.921875 -46.859375 L 15.59375 -46.859375 C 16.625 -46.859375 17.140625 -46.335938 17.140625 -45.296875 L 17.140625 -18.5 C 17.140625 -16.070312 17.789062 -14.097656 19.09375 -12.578125 C 20.40625 -11.054688 22.210938 -10.296875 24.515625 -10.296875 C 26.585938 -10.296875 28.289062 -10.914062 29.625 -12.15625 C 30.957031 -13.40625 31.78125 -15.035156 32.09375 -17.046875 Z M 32.09375 -45.296875 "/></g></g></g><g fill="#4f15ac" fill-opacity="1"><g transform="translate(136.774911, 173.247261)"><g><path d="M 27.34375 -10.125 C 31.351562 -10.300781 34.421875 -11.695312 36.546875 -14.3125 C 36.910156 -14.738281 37.304688 -14.953125 37.734375 -14.953125 C 38.097656 -14.953125 38.429688 -14.800781 38.734375 -14.5 L 43.9375 -9.484375 C 44.300781 -9.117188 44.484375 -8.753906 44.484375 -8.390625 C 44.484375 -7.960938 44.363281 -7.597656 44.125 -7.296875 C 42.113281 -4.804688 39.539062 -2.84375 36.40625 -1.40625 C 33.28125 0.0195312 29.863281 0.734375 26.15625 0.734375 C 20.570312 0.734375 15.941406 -0.691406 12.265625 -3.546875 C 8.585938 -6.410156 6.109375 -10.332031 4.828125 -15.3125 C 4.097656 -17.988281 3.734375 -20.816406 3.734375 -23.796875 C 3.734375 -27.316406 4.066406 -30.289062 4.734375 -32.71875 C 5.953125 -37.21875 8.398438 -40.832031 12.078125 -43.5625 C 15.753906 -46.300781 20.113281 -47.671875 25.15625 -47.671875 C 31.113281 -47.671875 35.835938 -45.90625 39.328125 -42.375 C 42.828125 -38.851562 45.09375 -33.90625 46.125 -27.53125 C 46.363281 -25.519531 46.546875 -23.300781 46.671875 -20.875 C 46.671875 -19.84375 46.15625 -19.328125 45.125 -19.328125 L 17.140625 -19.328125 C 16.773438 -19.328125 16.59375 -19.144531 16.59375 -18.78125 C 16.769531 -17.5 16.984375 -16.554688 17.234375 -15.953125 C 17.835938 -14.066406 19.035156 -12.625 20.828125 -11.625 C 22.617188 -10.625 24.789062 -10.125 27.34375 -10.125 Z M 24.984375 -36.546875 C 23.035156 -36.546875 21.40625 -36.078125 20.09375 -35.140625 C 18.789062 -34.203125 17.894531 -32.878906 17.40625 -31.171875 C 17.101562 -30.015625 16.921875 -29.253906 16.859375 -28.890625 C 16.796875 -28.523438 16.945312 -28.34375 17.3125 -28.34375 L 32.8125 -28.34375 C 33.113281 -28.34375 33.265625 -28.46875 33.265625 -28.71875 C 33.265625 -29.382812 33.144531 -30.082031 32.90625 -30.8125 C 32.363281 -32.570312 31.421875 -33.96875 30.078125 -35 C 28.742188 -36.03125 27.046875 -36.546875 24.984375 -36.546875 Z M 24.984375 -36.546875 "/></g></g></g><g fill="#4f15ac" fill-opacity="1"><g transform="translate(186.636551, 173.247261)"><g><path d="M 33 -62.265625 C 33 -63.296875 33.515625 -63.8125 34.546875 -63.8125 L 44.296875 -63.8125 C 45.335938 -63.8125 45.859375 -63.296875 45.859375 -62.265625 L 45.859375 -1.546875 C 45.859375 -0.515625 45.335938 0 44.296875 0 L 34.546875 0 C 33.515625 0 33 -0.515625 33 -1.546875 L 33 -4.015625 C 33 -4.253906 32.921875 -4.390625 32.765625 -4.421875 C 32.617188 -4.453125 32.484375 -4.375 32.359375 -4.1875 C 29.867188 -0.90625 26.40625 0.734375 21.96875 0.734375 C 17.832031 0.734375 14.171875 -0.492188 10.984375 -2.953125 C 7.796875 -5.421875 5.59375 -8.660156 4.375 -12.671875 C 3.34375 -15.585938 2.828125 -19.234375 2.828125 -23.609375 C 2.828125 -28.109375 3.40625 -31.875 4.5625 -34.90625 C 5.894531 -38.800781 8.09375 -41.898438 11.15625 -44.203125 C 14.226562 -46.515625 17.832031 -47.671875 21.96875 -47.671875 C 26.46875 -47.671875 29.929688 -46.179688 32.359375 -43.203125 C 32.484375 -43.023438 32.617188 -42.960938 32.765625 -43.015625 C 32.921875 -43.078125 33 -43.234375 33 -43.484375 Z M 31.078125 -14.40625 C 32.296875 -16.65625 32.90625 -19.660156 32.90625 -23.421875 C 32.90625 -27.429688 32.269531 -30.5625 31 -32.8125 C 29.476562 -35.1875 27.441406 -36.375 24.890625 -36.375 C 22.085938 -36.375 19.957031 -35.21875 18.5 -32.90625 C 17.039062 -30.476562 16.3125 -27.289062 16.3125 -23.34375 C 16.3125 -19.75 16.953125 -16.769531 18.234375 -14.40625 C 19.691406 -11.789062 21.910156 -10.484375 24.890625 -10.484375 C 27.554688 -10.484375 29.617188 -11.789062 31.078125 -14.40625 Z M 31.078125 -14.40625 "/></g></g></g><g fill="#4f15ac" fill-opacity="1"><g transform="translate(237.409734, 173.247261)"><g><path d="M 27.34375 -10.125 C 31.351562 -10.300781 34.421875 -11.695312 36.546875 -14.3125 C 36.910156 -14.738281 37.304688 -14.953125 37.734375 -14.953125 C 38.097656 -14.953125 38.429688 -14.800781 38.734375 -14.5 L 43.9375 -9.484375 C 44.300781 -9.117188 44.484375 -8.753906 44.484375 -8.390625 C 44.484375 -7.960938 44.363281 -7.597656 44.125 -7.296875 C 42.113281 -4.804688 39.539062 -2.84375 36.40625 -1.40625 C 33.28125 0.0195312 29.863281 0.734375 26.15625 0.734375 C 20.570312 0.734375 15.941406 -0.691406 12.265625 -3.546875 C 8.585938 -6.410156 6.109375 -10.332031 4.828125 -15.3125 C 4.097656 -17.988281 3.734375 -20.816406 3.734375 -23.796875 C 3.734375 -27.316406 4.066406 -30.289062 4.734375 -32.71875 C 5.953125 -37.21875 8.398438 -40.832031 12.078125 -43.5625 C 15.753906 -46.300781 20.113281 -47.671875 25.15625 -47.671875 C 31.113281 -47.671875 35.835938 -45.90625 39.328125 -42.375 C 42.828125 -38.851562 45.09375 -33.90625 46.125 -27.53125 C 46.363281 -25.519531 46.546875 -23.300781 46.671875 -20.875 C 46.671875 -19.84375 46.15625 -19.328125 45.125 -19.328125 L 17.140625 -19.328125 C 16.773438 -19.328125 16.59375 -19.144531 16.59375 -18.78125 C 16.769531 -17.5 16.984375 -16.554688 17.234375 -15.953125 C 17.835938 -14.066406 19.035156 -12.625 20.828125 -11.625 C 22.617188 -10.625 24.789062 -10.125 27.34375 -10.125 Z M 24.984375 -36.546875 C 23.035156 -36.546875 21.40625 -36.078125 20.09375 -35.140625 C 18.789062 -34.203125 17.894531 -32.878906 17.40625 -31.171875 C 17.101562 -30.015625 16.921875 -29.253906 16.859375 -28.890625 C 16.796875 -28.523438 16.945312 -28.34375 17.3125 -28.34375 L 32.8125 -28.34375 C 33.113281 -28.34375 33.265625 -28.46875 33.265625 -28.71875 C 33.265625 -29.382812 33.144531 -30.082031 32.90625 -30.8125 C 32.363281 -32.570312 31.421875 -33.96875 30.078125 -35 C 28.742188 -36.03125 27.046875 -36.546875 24.984375 -36.546875 Z M 24.984375 -36.546875 "/></g></g></g><g fill="#4f15ac" fill-opacity="1"><g transform="translate(287.271374, 173.247261)"><g><path d="M 56.703125 -47.578125 C 61.441406 -47.578125 65.144531 -46.148438 67.8125 -43.296875 C 70.488281 -40.441406 71.828125 -36.429688 71.828125 -31.265625 L 71.828125 -1.546875 C 71.828125 -0.515625 71.3125 0 70.28125 0 L 60.53125 0 C 59.5 0 58.984375 -0.515625 58.984375 -1.546875 L 58.984375 -28.4375 C 58.984375 -30.925781 58.34375 -32.898438 57.0625 -34.359375 C 55.789062 -35.816406 54.085938 -36.546875 51.953125 -36.546875 C 49.828125 -36.546875 48.09375 -35.816406 46.75 -34.359375 C 45.414062 -32.898438 44.75 -30.957031 44.75 -28.53125 L 44.75 -1.546875 C 44.75 -0.515625 44.234375 0 43.203125 0 L 33.546875 0 C 32.515625 0 32 -0.515625 32 -1.546875 L 32 -28.4375 C 32 -30.875 31.328125 -32.832031 29.984375 -34.3125 C 28.648438 -35.800781 26.921875 -36.546875 24.796875 -36.546875 C 22.847656 -36.546875 21.21875 -35.96875 19.90625 -34.8125 C 18.601562 -33.664062 17.832031 -32.054688 17.59375 -29.984375 L 17.59375 -1.546875 C 17.59375 -0.515625 17.078125 0 16.046875 0 L 6.296875 0 C 5.253906 0 4.734375 -0.515625 4.734375 -1.546875 L 4.734375 -45.296875 C 4.734375 -46.335938 5.253906 -46.859375 6.296875 -46.859375 L 16.046875 -46.859375 C 17.078125 -46.859375 17.59375 -46.335938 17.59375 -45.296875 L 17.59375 -42.390625 C 17.59375 -42.140625 17.664062 -41.984375 17.8125 -41.921875 C 17.96875 -41.867188 18.109375 -41.960938 18.234375 -42.203125 C 20.722656 -45.785156 24.550781 -47.578125 29.71875 -47.578125 C 32.757812 -47.578125 35.398438 -46.953125 37.640625 -45.703125 C 39.890625 -44.460938 41.625 -42.660156 42.84375 -40.296875 C 42.90625 -40.046875 43.007812 -39.9375 43.15625 -39.96875 C 43.3125 -40 43.453125 -40.109375 43.578125 -40.296875 C 44.972656 -42.722656 46.796875 -44.539062 49.046875 -45.75 C 51.296875 -46.96875 53.847656 -47.578125 56.703125 -47.578125 Z M 56.703125 -47.578125 "/></g></g></g><g fill="#4f15ac" fill-opacity="1"><g transform="translate(363.385572, 173.247261)"><g><path d="M 4.46875 18.140625 C 4.039062 18.140625 3.828125 17.625 3.828125 16.59375 L 3.828125 9.109375 C 3.828125 8.078125 4.007812 7.5625 4.375 7.5625 L 4.921875 7.5625 C 8.691406 7.5625 11.378906 7.085938 12.984375 6.140625 C 14.597656 5.203125 15.769531 3.273438 16.5 0.359375 C 16.625 0.0546875 16.625 -0.179688 16.5 -0.359375 L 1.828125 -45.125 C 1.765625 -45.238281 1.734375 -45.421875 1.734375 -45.671875 C 1.734375 -46.035156 1.851562 -46.320312 2.09375 -46.53125 C 2.34375 -46.75 2.675781 -46.859375 3.09375 -46.859375 L 13.578125 -46.859375 C 14.429688 -46.859375 15.007812 -46.429688 15.3125 -45.578125 L 22.78125 -18.40625 C 22.84375 -18.164062 22.960938 -18.046875 23.140625 -18.046875 C 23.328125 -18.046875 23.453125 -18.164062 23.515625 -18.40625 L 30.625 -45.484375 C 30.8125 -46.398438 31.390625 -46.859375 32.359375 -46.859375 L 42.84375 -46.859375 C 43.382812 -46.859375 43.773438 -46.691406 44.015625 -46.359375 C 44.265625 -46.023438 44.300781 -45.613281 44.125 -45.125 L 28.53125 1.734375 C 27.007812 6.171875 25.457031 9.5 23.875 11.71875 C 22.300781 13.9375 20.082031 15.5625 17.21875 16.59375 C 14.363281 17.625 10.328125 18.140625 5.109375 18.140625 Z M 4.46875 18.140625 "/></g></g></g><g fill="#4f15ac" fill-opacity="1"><g transform="translate(18.718993, 170.974195)"><g><path d="M 59.984375 5.304688 L 67.25 -1.558594 L 58.246094 -10.117188 C 62.257812 -15.6875 64.441406 -23.351562 64.441406 -31.417969 C 64.441406 -48.574219 54.859375 -63.90625 34.046875 -63.90625 C 13.234375 -63.90625 3.65625 -48.664062 3.65625 -31.507812 C 3.65625 -14.351562 13.234375 0.890625 34.046875 0.890625 C 40.6875 0.890625 46.347656 -0.714844 50.9375 -3.742188 Z M 34.046875 -9.757812 C 20.542969 -9.757812 14.972656 -19.609375 14.972656 -31.507812 C 14.972656 -43.363281 20.542969 -53.210938 34.046875 -53.210938 C 47.550781 -53.210938 53.121094 -43.363281 53.121094 -31.507812 C 53.121094 -26.5625 52.183594 -22.28125 50 -18.359375 L 41.625 -26.113281 L 34.316406 -19.429688 L 42.917969 -11.585938 C 40.597656 -10.515625 37.613281 -9.757812 34.046875 -9.757812 Z M 34.046875 -9.757812 "/></g></g></g><g clip-path="url(#5f88f8848c)"><path fill="#4f15ac" d="M 26.488281 87.285156 L 81.046875 87.285156 L 81.046875 98.367188 L 26.488281 98.367188 Z M 26.488281 87.285156 " fill-opacity="1" fill-rule="nonzero"/></g></svg>